<svg xmlns="http://www.w3.org/2000/svg" version="1.1" xmlns:xlink="http://www.w3.org/1999/xlink" width="1500" height="1500" viewBox="0 0 1500 1500"><rect width="1500" height="1500" x="0" y="0" id="background" stroke="transparent" fill="#ffffff"></rect><svg xml:space="preserve" width="1000" height="1000" data-version="2" data-id="lg_LI4PhFI4nUFIIldKQV" viewBox="0 0 557 458" x="250" y="250"><rect width="100%" height="100%" fill="transparent"></rect><circle r="99.82" fill="#fff74f" transform="translate(229.99 229)scale(2.2393)"></circle><path d="M440.865 350.824q-40.98 0-72.57-3.76-31.58-3.76-45.49-7.52v-7.52l-7.52-40.23q5.26 6.01 20.11 12.78t39.67 11.47q24.82 4.7 59.03 4.7 30.83 0 46.81-4.32 15.98-4.33 21.81-12.04 5.83-7.7 5.83-17.86 0-12.03-9.78-19.17-9.77-7.15-29.14-11.47-19.36-4.32-47.94-7.71-37.22-4.89-59.78-12.97-22.56-8.08-32.71-21.62-10.15-13.54-10.15-34.22 0-17.67 10.71-31.58 10.72-13.91 32.53-22 21.8-8.08 55.64-8.08 39.11 0 68.06 3.76 28.95 3.76 40.98 7.52v7.52l11.28 33.84q-7.89-4.89-24.25-10.15-16.35-5.27-39.29-8.84-22.94-3.57-51.14-3.57-23.31 0-37.03 3.38-13.73 3.39-19.55 9.97-5.83 6.58-5.83 15.98 0 12.41 9.21 19.93t27.07 11.65q17.86 4.14 43.43 7.15 40.61 4.51 64.67 12.78 24.07 8.27 34.59 22.18 10.53 13.92 10.53 36.1 0 14.66-6.95 26.51-6.96 11.84-20.87 20.3t-34.41 12.79q-20.49 4.32-47.56 4.32"></path><rect width="235.37" height="233.12" x="-117.69" y="-116.56" fill="none" rx="0" ry="0" transform="translate(433.47 234.76)"></rect></svg></svg>